<svg width="27" height="30" viewBox="0 0 27 30" fill="none" xmlns="http://www.w3.org/2000/svg">
<path d="M14.7211 10.0555C14.9079 9.31602 15.9586 9.31602 16.1454 10.0555L16.3353 10.8073C17.2062 14.254 20.0089 16.8751 23.5061 17.5135V17.5135C24.2153 17.643 24.2153 18.6597 23.5061 18.7892V18.7892C20.0089 19.4276 17.2062 22.0487 16.3353 25.4954L16.1454 26.2472C15.9586 26.9867 14.9079 26.9867 14.7211 26.2472L14.5311 25.4954C13.6603 22.0487 10.8576 19.4276 7.36042 18.7892V18.7892C6.65115 18.6597 6.65115 17.643 7.36042 17.5135V17.5135C10.8576 16.8751 13.6603 14.254 14.5311 10.8073L14.7211 10.0555Z" fill="white"/>
<path d="M5.07706 7.0098C5.15903 6.67377 5.63687 6.67377 5.71884 7.0098L5.79583 7.32539C6.18556 8.92307 7.48624 10.1371 9.10694 10.4161V10.4161C9.43349 10.4723 9.43349 10.9412 9.10694 10.9974V10.9974C7.48624 11.2763 6.18556 12.4904 5.79583 14.088L5.71884 14.4036C5.63687 14.7397 5.15903 14.7397 5.07706 14.4036L5.00007 14.088C4.61033 12.4904 3.30966 11.2763 1.68896 10.9974V10.9974C1.36241 10.9412 1.36241 10.4723 1.68896 10.4161V10.4161C3.30966 10.1371 4.61033 8.92307 5.00007 7.32539L5.07706 7.0098Z" fill="white"/>
<path d="M11.2345 1.91311C11.2656 1.64734 11.6514 1.64734 11.6825 1.91311V1.91311C11.7992 2.90904 12.5593 3.70842 13.5481 3.87502L13.6315 3.88907C13.8948 3.93343 13.8948 4.31179 13.6315 4.35615L13.5481 4.3702C12.5593 4.5368 11.7992 5.33618 11.6825 6.33211V6.33211C11.6514 6.59788 11.2656 6.59788 11.2345 6.33211V6.33211C11.1178 5.33617 10.3577 4.5368 9.36893 4.3702L9.28553 4.35615C9.02222 4.31179 9.02222 3.93343 9.28553 3.88907L9.36893 3.87502C10.3577 3.70842 11.1178 2.90904 11.2345 1.91311V1.91311Z" fill="white"/>
</svg>
